<svg width="18" height="18" viewBox="0 0 18 18" fill="none" xmlns="http://www.w3.org/2000/svg">
<path d="M14 0C14.3344 0 14.6466 0.167114 14.832 0.445312L17.832 4.94531C17.9415 5.10958 18 5.30258 18 5.5V17C18 17.5523 17.5523 18 17 18H1C0.447715 18 0 17.5523 0 17V5.5C0 5.30258 0.0584571 5.10958 0.167969 4.94531L3.16797 0.445312L3.24316 0.34668C3.43175 0.128167 3.70733 0 4 0H14ZM5 12C4.44772 12 4 12.4477 4 13C4 13.5523 4.44772 14 5 14H9C9.55228 14 10 13.5523 10 13C10 12.4477 9.55228 12 9 12H5ZM2.86816 4.5H8V2H4.53516L2.86816 4.5ZM10 4.5H15.1318L13.4648 2H10V4.5Z" fill="black"/>
</svg>
