<svg width="21" height="20" viewBox="0 0 21 20" fill="none" xmlns="http://www.w3.org/2000/svg">
<path d="M10.9921 0.0614505C10.6692 -0.0204835 10.331 -0.0204835 10.0081 0.0614505C9.63379 0.15645 9.3131 0.388114 9.05751 0.57275L8.98659 0.623835L0.417961 6.75825C-0.0311049 7.07974 -0.134523 7.70441 0.186971 8.15347C0.508464 8.60254 1.13313 8.70596 1.58219 8.38446L2.50009 7.72733L2.50009 13.5114C2.50008 14.3164 2.50007 14.9808 2.54428 15.522C2.59021 16.0841 2.68877 16.6008 2.93606 17.0861C3.31956 17.8388 3.93148 18.4507 4.68413 18.8342C5.16946 19.0815 5.68617 19.18 6.24826 19.226C6.78945 19.2702 7.45381 19.2702 8.25877 19.2701H12.7414C13.5464 19.2702 14.2107 19.2702 14.7519 19.226C15.314 19.18 15.8307 19.0815 16.3161 18.8342C17.0687 18.4507 17.6806 17.8388 18.0641 17.0861C18.3114 16.6008 18.41 16.0841 18.4559 15.522C18.5001 14.9808 18.5001 14.3164 18.5001 13.5115V7.72733L19.418 8.38446C19.8671 8.70596 20.4917 8.60254 20.8132 8.15347C21.1347 7.70441 21.0313 7.07974 20.5822 6.75825L12.0136 0.623835L11.9427 0.57275C11.6871 0.388114 11.3664 0.15645 10.9921 0.0614505Z" fill="black"/>
</svg>
