<?xml version="1.0" encoding="UTF-8"?><svg id="Layer_1" xmlns="http://www.w3.org/2000/svg" viewBox="0 0 430 110.58"><defs><style>.cls-1{fill:#1f3438;}</style></defs><g id="Layer_2"><g id="Layer_1-2"><path class="cls-1" d="M377,82.4c-2.77,0-4.91,0-6.22-2.06-3-8.09-9-24.57-11.55-31.31l-2-5.55c-3.51-9.65-11.58-15.19-22.35-15.19-6.39,0-13.06,2.77-17.9,6.28l4.28,3.43c2.76-2.22,6.78-4.46,10.52-4.46,8.73,0,13.41,4.07,16.48,12.48l2.15,5.91c-4.44-2.7-9.54-4.11-14.74-4.08-10.51,0-21.14,6.89-21.14,20.06s8.82,19.93,25.5,19.93c11,0,17.43-4.21,20.76-7.39l2,5.5h16.27l-1.35-3.53-.71-.02Zm-37.93,2.15c-9.43,0-15.15-6.69-15.15-16.26,0-6.18,1-16.56,13.49-16.56,5.32,0,10.49,1.75,14.7,5l6.75,18.55c-2.4,6.29-11.41,9.27-19.75,9.27h-.04Z"/><path class="cls-1" d="M244.4,82.4c-2.77,0-4.91,0-6.22-2.06-3-8.09-9-24.57-11.55-31.31l-2-5.55c-3.52-9.65-11.59-15.19-22.36-15.19-6.39,0-12.2,2.77-17,6.28l4.21,3.43c2.76-2.22,6.79-4.46,10.53-4.46,8.72,0,12.55,4.07,15.61,12.48l2.15,5.91c-4.45-2.71-9.56-4.13-14.77-4.1-10.51,0-20.28,6.89-20.28,20.06s8,19.93,24.64,19.93c11,0,17.43-4.21,20.76-7.39l2,5.5h16.27l-1.35-3.53h-.64Zm-37.93,2.15c-9.43,0-14.29-6.69-14.29-16.26,0-6.18,.14-16.56,12.63-16.56,5.32-.01,10.49,1.75,14.7,5l6.75,18.55c-2.44,6.29-11.45,9.27-19.79,9.27Z"/><path class="cls-1" d="M142.27,82.4c-2.78,0-4.92,0-6.23-2.06-3-8.09-9-24.57-11.55-31.31l-2-5.55c-3.51-9.65-11.59-15.19-22.36-15.19-6.38,0-13,2.77-17.89,6.28l4.25,3.43c2.76-2.22,6.78-4.46,10.52-4.46,8.73,0,13.41,4.07,16.47,12.48l2.16,5.91c-4.44-2.7-9.54-4.11-14.74-4.08-10.51,0-21.15,6.89-21.15,20.06s8.82,19.93,25.51,19.93c10.95,0,17.42-4.21,20.76-7.39l2,5.5h16.27l-1.35-3.53-.67-.02Zm-37.94,2.15c-9.42,0-15.15-6.69-15.15-16.26,0-6.18,1-16.56,13.5-16.56,5.32,0,10.49,1.75,14.7,5l6.75,18.55c-2.44,6.29-11.45,9.27-19.8,9.27Z"/><polygon class="cls-1" points="291.21 79.76 274.58 30.02 263.56 30.02 274.03 59.58 264.75 81.83 247.43 30.02 236.41 30.02 256.04 85.44 256.21 85.91 266.34 85.91 275.64 64.12 283.36 85.91 293.49 85.91 312.8 30.02 308.81 30.02 291.21 79.76"/><path class="cls-1" d="M430,65.05V30h-9.27l.87,33.36v4.79c0,7.19-6.18,14-13.28,15.15-2.23,.17-4.47,.17-6.7,0-7.15-.74-13.28-8-13.28-15.15v-4.79l.84-33.36h-9.26v42.56c0,6.47,5.27,17.26,22.54,17.26h5c4.91,0,10.59-2.74,13.94-5.49-.46,4.34-.91,8.76-2.24,11.72-1.85,4.12-6.06,9-15.76,9s-19.32-8.12-20.26-9.54l-.23-.34-3,.27,.45,.9c.06,.14,7.55,13.33,23.53,14.18,11.89,.64,19.07-4.15,23-14.23,.29-.76,.51-1.54,.68-2.33,1.51-5.93,2.08-13.95,2.28-20,.05-.46,.08-.93,.08-1.39v-1.89c.07-3.38,.07-5.63,.07-5.63Z"/><path class="cls-1" d="M157.93,39.61v-9.83h-10v56.13h10.9V44.08c2.76-4.28,7.47-6.91,12.57-7,2.46-.05,4.87,.65,6.93,2v-9.39c-1.52-.81-3.24-1.15-4.95-1-5.13,.02-13.05,7.49-15.45,10.92Z"/><path class="cls-1" d="M41.61,77.69c-19.73,0-32.61-20.78-32.61-39.43,0-10.73,2.46-19.57,8.73-25.56,5.85-5.4,13.57-8.33,21.53-8.18,8.16,0,14.44,5.12,18.27,9.41,2.56,2.89,4.73,6.09,6.47,9.53l.34,.72,9.4-6c-.56-1.19-4-5-5.06-6.16C62.61,5.7,55.47,0,39.49,0,24.34,0,15,7.47,9.91,13.74,3.51,21.71,.02,31.61,0,41.83c0,6.4,1.11,18.69,8.53,29.07,6.91,9.67,17.58,14.78,30.85,14.78,19.38,0,29.79-13.28,34.66-22.4l-4.28-1.81c-7.76,10.9-17,16.22-28.15,16.22Z"/></g></g></svg>