<svg width="16" height="16" viewBox="0 0 16 16" fill="none" xmlns="http://www.w3.org/2000/svg">
<g clip-path="url(#clip0_98_4042)">
<path fill-rule="evenodd" clip-rule="evenodd" d="M7.52862 0.861934C7.78897 0.601584 8.21108 0.601584 8.47142 0.861934L10.2762 2.66667H12.6667C13.0349 2.66667 13.3334 2.96515 13.3334 3.33334V5.72386L15.1381 7.5286C15.3984 7.78895 15.3984 8.21106 15.1381 8.47141L13.3334 10.2761V12.6667C13.3334 13.0349 13.0349 13.3333 12.6667 13.3333H10.2762L8.47142 15.1381C8.21108 15.3984 7.78897 15.3984 7.52862 15.1381L5.72388 13.3333H3.33335C2.96516 13.3333 2.66669 13.0349 2.66669 12.6667V10.2761L0.861949 8.47141C0.6016 8.21106 0.6016 7.78895 0.861949 7.5286L2.66669 5.72386V3.33334C2.66669 2.96515 2.96516 2.66667 3.33335 2.66667H5.72388L7.52862 0.861934ZM10.2128 6.88231C10.424 6.58068 10.3506 6.16499 10.049 5.95385C9.74736 5.74271 9.33168 5.81606 9.12053 6.1177L7.21324 8.8424L6.43902 8.16495C6.16193 7.9225 5.74076 7.95058 5.4983 8.22767C5.25585 8.50476 5.28393 8.92594 5.56102 9.16839L6.89435 10.3351C7.03684 10.4597 7.22562 10.5179 7.41357 10.4952C7.60153 10.4724 7.77093 10.3708 7.87951 10.2156L10.2128 6.88231Z" fill="black"/>
</g>
<defs>
<clipPath id="clip0_98_4042">
<rect width="16" height="16" fill="white"/>
</clipPath>
</defs>
</svg>
