<svg width="20" height="20" viewBox="0 0 20 20" fill="none" xmlns="http://www.w3.org/2000/svg">
<path d="M4.56559 7.45613C4.92875 4.61892 7.25214 2.5 9.99998 2.5C12.7478 2.5 15.0712 4.61892 15.4344 7.45614L16.4 15H3.59998L4.56559 7.45613Z" fill="black"/>
<path d="M13.2 15C12.6613 16.4716 11.4313 17.5 9.99998 17.5C8.5687 17.5 7.33859 16.4716 6.79998 15M15.4344 7.45614L16.1115 12.7461C16.2645 13.9417 15.333 15 14.1277 15H5.87229C4.66693 15 3.73544 13.9417 3.88848 12.7461L4.56559 7.45613C4.92875 4.61892 7.25214 2.5 9.99998 2.5C12.7478 2.5 15.0712 4.61892 15.4344 7.45614Z" stroke="black" stroke-width="1.67" stroke-linejoin="round"/>
</svg>
