<svg xmlns="http://www.w3.org/2000/svg" viewBox="0 0 1024 224" width="1024" height="224">
  <path d="M 82.11544,30.219152 L 115.0555,103.30471 L 148.69776,30.219152 L 155.66281,30.219152 L 199.04728,189.60552 L 160.53391,189.60552 L 142.90304,123.25727 L 115.0555,185.89209 L 86.99287,123.94681 L 69.34935,189.60552 L 31.99999,189.60552 L 75.15672,30.219152 L 82.11544,30.219152 z"/>
  <path d="M 306.25335,157.59413 C 329.91301,157.59413 348.70788,137.41384 348.70788,112.36244 C 348.70788,87.298387 329.91301,66.877701 306.71516,66.877701 C 283.74505,66.877701 264.48837,87.298387 264.48837,111.66024 C 264.48837,137.17345 283.0555,157.59413 306.25335,157.59413 M 306.01954,31.609632 C 350.80208,31.609632 386.75969,67.339507 386.75969,112.36244 C 386.75969,156.89193 350.80208,192.85588 306.71541,192.85588 C 262.87546,193.08969 226.44339,156.89193 226.44339,113.50746 C 226.44339,68.035379 261.93287,31.609632 306.01954,31.609632"/>
  <path d="M 509.58149,72.914076 C 493.1083,68.036644 484.06829,66.183094 475.47743,66.183094 C 468.0569,66.183094 463.41986,69.890296 463.41986,75.931631 C 463.41986,81.030476 466.20335,84.282097 474.08568,88.223264 C 475.93923,89.146978 479.8804,91.234595 486.1559,94.720181 C 504.93813,104.69656 506.55129,105.85414 512.82046,110.49117 C 523.96707,119.3161 529.99585,131.60773 529.99585,145.29121 C 529.99585,173.60046 507.02574,193.78085 475.0093,193.78085 C 466.8929,193.78085 453.67132,191.93363 443.68872,189.84591 C 436.71735,188.2201 432.55476,186.82203 421.41448,182.88096 L 430.23308,147.15731 C 439.74755,150.63668 443.23324,151.78813 448.79389,153.41384 C 460.15559,156.66546 469.43599,158.29137 476.40737,158.29137 C 484.2897,158.29137 489.863,152.95203 489.863,145.0697 C 489.863,137.87691 488.00945,136.47884 467.12696,125.57262 C 447.87661,115.60267 444.1442,113.50873 437.42587,107.70769 C 428.38586,99.819026 423.73617,89.621335 423.73617,76.855243 C 423.73617,49.709901 445.08679,30.921351 476.1733,30.921351 C 483.82157,30.921351 492.86158,32.079029 503.78677,34.628452 C 509.11336,36.020196 512.59905,36.956562 522.34758,39.733623 L 509.58149,72.914076 z"/>
  <path d="M 675.92911,76.626896 C 673.60743,74.994759 671.75388,74.071147 670.58993,73.375275 C 662.70759,69.200041 653.19312,66.878359 645.07667,66.878359 C 622.56204,66.878359 604.24167,87.299045 604.24167,112.81225 C 604.24167,138.10404 622.80248,157.82253 646.93022,157.82253 C 657.83016,157.82253 666.19328,154.80498 679.18078,145.9927 L 684.75401,184.27833 C 682.19201,185.43601 680.33841,186.35962 679.18078,186.82142 C 669.66626,190.76892 657.36835,193.0906 646.6962,193.0906 C 601.68592,193.0906 566.18379,157.36072 566.18379,112.11638 C 566.18379,66.416552 601.91999,31.38255 648.54975,31.38255 C 653.65493,31.38255 658.98784,31.844609 663.8716,32.774294 C 670.82399,34.166038 674.76516,35.323717 683.82411,38.803128 L 675.92916,76.626896 z"/>
  <path d="M 791.55401,157.59413 C 815.21361,157.59413 834.00851,137.41384 834.00851,112.36244 C 834.00851,87.298387 815.21361,66.877701 792.02211,66.877701 C 769.03941,66.877701 749.78901,87.298387 749.78901,111.66024 C 749.78901,137.17345 768.34981,157.59413 791.55401,157.59413 M 791.31961,31.609632 C 836.09591,31.609632 872.05351,67.339507 872.05351,112.36244 C 872.05351,156.89193 836.09591,192.85588 792.02191,192.85588 C 748.16301,193.08969 711.73721,156.89193 711.73721,113.50746 C 711.73721,68.035379 747.23301,31.609632 791.31961,31.609632"/>
  <path d="M 992.00001,34.858722 L 992.00001,68.975439 L 966.24011,68.975439 L 966.24011,189.60172 L 929.35881,189.60172 L 929.35881,68.975439 L 898.96191,68.975439 L 904.30111,34.858722 L 992.00001,34.858722 z"/>
</svg>
