<svg xmlns="http://www.w3.org/2000/svg" class="!w-[100px] 1000:!w-[156px] aspect-auto fill-current -mt-2.5 1000:mt-0" viewBox="0 0 236 67"><path d="M40.7001 11.6057L25.3541 66.8596H23.6494L7.26118 8.96333C5.74269 3.67503 4.60741 2.35028 0.818359 2.25744V0.839844H20.616V2.25744H18.4385C15.6916 2.25744 14.4597 3.29653 14.2698 5.37471C14.1731 6.88514 14.6495 9.53108 15.312 11.9878L27.1519 54.4905L37.7634 15.0086C38.6157 11.9878 39.2783 8.87049 39.2783 6.31739C39.2783 3.29653 37.3838 2.25744 34.8267 2.25744H33.3118V0.839844H47.5225V2.25744C43.6403 2.63594 42.7844 4.14637 40.7037 11.6093L40.7001 11.6057ZM67.6389 57.3221H68.5879C68.5879 63.7459 66.0308 66.1062 63.0941 66.1062C60.3473 66.1062 57.4106 64.8779 57.2208 58.3612H57.0309C55.4193 63.271 52.6725 66.1991 47.7481 66.1991C43.1998 66.1991 39.5075 63.271 39.5075 57.0365C39.5075 49.0094 43.866 44.2853 57.2208 40.8859V37.7687C57.2208 28.6061 55.2331 26.153 51.0644 26.153C47.2754 26.153 44.4318 28.6097 44.3387 29.9308C44.3387 30.4022 44.7183 30.4986 45.2878 30.6878C46.8994 31.0663 48.3176 32.2947 48.3176 34.7478C48.3176 37.2009 46.6129 38.7149 44.6216 38.7149C42.6304 38.7149 41.0224 37.1081 41.0224 34.18C41.0224 29.3631 44.9081 24.7354 52.4862 24.7354C58.1698 24.7354 63.5705 27.2849 63.5705 38.4292V57.9792C63.5705 61.9463 64.233 63.1746 65.465 63.1746C66.9799 63.1746 67.4526 60.8144 67.6424 57.3186L67.6389 57.3221ZM57.2172 42.2107C47.5547 44.6674 46.4159 50.1449 46.4159 55.5296C46.4159 60.4394 47.6479 63.0854 50.7744 63.0854C53.5212 62.9925 57.2172 59.4003 57.2172 49.4843V42.2107ZM82.6052 64.2173C76.3522 64.2173 74.3646 57.415 74.3646 45.4208C74.3646 33.4266 75.9762 25.9637 82.4154 25.9637C86.4874 25.9637 88.7615 28.6097 89.2379 30.7807C89.4277 31.5377 88.6684 31.4413 87.9128 31.7234C86.2081 32.1947 84.7863 33.7087 84.7863 36.2582C84.7863 39.0934 86.491 40.3182 88.2924 40.3182C90.0938 40.3182 91.8916 38.7113 91.8916 35.1227C91.8916 29.6452 88.4822 24.5426 82.1361 24.5426C73.7987 24.5426 67.1697 33.2338 67.1697 45.8886C67.1697 58.5433 73.2329 66.7632 80.9041 66.7632C86.4946 66.7632 89.9971 62.514 92.0814 56.7508L91.0393 56.1831C89.1448 60.8108 86.491 64.2101 82.6088 64.2101L82.6052 64.2173ZM121.348 57.3221H122.297C122.297 63.7459 119.74 66.1062 116.803 66.1062C114.056 66.1062 111.12 64.8779 110.93 58.3612H110.74C109.129 63.271 106.382 66.1991 101.457 66.1991C96.9091 66.1991 93.2167 63.271 93.2167 57.0365C93.2167 49.0094 97.5752 44.2853 110.93 40.8859V37.7687C110.93 28.6061 108.942 26.153 104.774 26.153C100.985 26.153 98.1411 28.6097 98.0479 29.9308C98.0479 30.4022 98.4276 30.4986 98.997 30.6878C100.609 31.0663 102.027 32.2947 102.027 34.7478C102.027 37.2009 100.322 38.7149 98.3309 38.7149C96.3396 38.7149 94.7316 37.1081 94.7316 34.18C94.7316 29.3631 98.6138 24.7354 106.195 24.7354C111.879 24.7354 117.28 27.2849 117.28 38.4292V57.9792C117.28 61.9463 117.942 63.1746 119.174 63.1746C120.689 63.1746 121.162 60.8144 121.352 57.3186L121.348 57.3221ZM110.926 42.2107C101.264 44.6674 100.125 50.1449 100.125 55.5296C100.125 60.4394 101.357 63.0854 104.484 63.0854C107.23 62.9925 110.926 59.4003 110.926 49.4843V42.2107ZM145.16 14.2516C147.624 14.2516 149.709 12.1734 149.709 9.62392C149.709 7.07439 147.624 4.99621 145.16 4.99621C142.507 4.99621 140.519 7.07439 140.519 9.62392C140.519 12.1734 142.603 14.2516 145.16 14.2516ZM149.139 59.0218V25.2067L139.04 25.9066C138.51 25.9423 137.98 25.9601 137.45 25.9601H129.682V8.86691H128.357C127.694 21.0504 123.432 25.1139 118.411 26.2458V27.3777H123.243V54.5798C123.243 62.7961 126.369 66.6704 131.673 66.6704C136.977 66.6704 139.821 61.6642 139.821 51.3697H138.495C138.402 59.6824 136.411 63.8388 133.381 63.8388C130.634 63.8388 129.685 61.1929 129.685 54.9619V27.3813L138.879 27.4027C142.098 27.4027 142.793 28.0419 142.793 32.4839V59.0254C142.793 63.1818 142.131 64.2209 139.004 64.2209H138.245V65.4492H153.688V64.2209H152.928C149.709 64.2209 149.139 63.1818 149.139 59.0254V59.0218ZM179.33 45.4208C179.33 57.7935 172.604 66.7668 165.309 66.7668C158.014 66.7668 151.288 57.8899 151.288 45.6101C151.288 33.3302 158.204 24.5461 165.309 24.5461C172.414 24.5461 179.33 32.8589 179.33 45.4208ZM172.131 45.7029C172.131 33.9908 170.71 25.7745 165.313 25.7745C159.915 25.7745 158.49 33.8015 158.49 45.5136C158.49 57.2257 159.722 65.4421 165.406 65.4421C171.089 65.4421 172.131 57.1293 172.131 45.7029ZM206.756 58.9254V37.9579C206.756 28.6061 203.156 25.1139 197.376 25.1139C192.638 25.1139 189.136 29.081 187.714 35.3155H187.621L188 25.2103L177.296 25.9673V27.0992H177.768C180.895 27.0992 181.651 28.2312 181.651 32.4839V58.929C181.651 63.1782 180.891 64.2173 177.768 64.2173H177.296V65.4456H192.072V64.2173H191.503C188.566 64.2173 187.997 63.1782 187.997 58.929V42.9677C187.997 35.0335 190.554 28.1383 195.575 28.1383C198.418 28.1383 200.313 29.6487 200.313 35.5048V58.929C200.313 63.1782 199.554 64.2173 196.714 64.2173H196.144V65.4456H210.638V64.2173H210.258C207.511 64.2173 206.752 63.271 206.752 58.929L206.756 58.9254ZM221.475 0.907688C213.542 0.907688 207.379 8.35273 207.379 17.9402C207.379 27.5277 213.539 34.9728 221.475 34.9728C229.411 34.9728 235.571 27.5277 235.571 17.9402C235.571 8.35273 229.314 0.907688 221.475 0.907688ZM221.475 33.573C214.101 33.573 208.969 26.7779 208.969 17.9366C208.969 9.09544 214.105 2.30029 221.475 2.30029C228.845 2.30029 233.888 9.09544 233.888 17.9366C233.888 26.7779 228.752 33.573 221.475 33.573ZM229.97 22.218H229.221C229.314 24.4533 228.663 25.2888 228.1 25.2888C227.445 25.2888 227.166 25.0103 226.235 22.1252C225.676 20.2648 224.462 18.1223 222.875 17.6581C225.676 17.3796 227.821 15.4228 227.821 12.7269C227.821 9.19185 225.393 7.70285 221.475 7.70285H214.287V8.63482H215.036C216.064 8.63482 216.436 8.91333 216.436 9.93814V25.1067C216.436 26.1315 216.064 26.3172 215.036 26.3172H214.287V27.2492H221.754V26.3172H220.916C219.888 26.3172 219.609 26.1315 219.609 25.1067V18.1259H220.823C222.317 18.1259 222.782 19.6149 223.158 22.3144C223.717 26.4101 225.397 27.5277 227.266 27.5277C228.946 27.5277 230.16 25.853 229.973 22.2216L229.97 22.218ZM220.916 17.1939H219.609V9.93814C219.609 8.91333 219.982 8.63482 220.916 8.63482H221.572C223.438 8.63482 224.279 10.2167 224.279 12.8233C224.279 15.8013 223.251 17.1975 220.92 17.1975L220.916 17.1939Z"></path></svg>