<svg width="61" height="10" viewBox="0 0 61 10" fill="none" xmlns="http://www.w3.org/2000/svg">
<path d="M3.23633 0.24707C6.3156 0.24707 8.5341 2.40429 8.53418 5.33398C8.53418 8.07781 6.60948 10 3.93848 10C1.6513 9.99981 0 8.4053 0 6.27148C9.26222e-05 4.81907 0.837537 3.7631 2.01562 3.3418L2.96484 5.03027C2.30978 5.33448 2.08216 5.77998 2.08203 6.34277C2.08203 7.25683 2.82945 7.91291 3.91504 7.91309C5.25054 7.91309 6.29297 6.83467 6.29297 5.35742C6.2929 3.64626 4.97929 2.33412 3.21484 2.33398C2.51263 2.33398 1.83322 2.54443 1.24414 2.91895L0.248047 1.16113C0.995697 0.621524 2.08171 0.247144 3.23633 0.24707ZM28.3643 3.02637C30.3018 3.02644 31.6875 4.44369 31.6875 6.40723C31.6874 8.37063 30.3004 9.81926 28.3643 9.81934C26.4281 9.81934 25.0402 8.40319 25.04 6.40723C25.04 4.41113 26.428 3.02637 28.3643 3.02637ZM50.4404 2.99512C52.0528 2.99512 53.0869 3.86329 53.1846 5.24805H51.7949C51.7623 4.50698 51.2142 4.05762 50.3105 4.05762C49.5044 4.05769 49.0195 4.4438 49.0195 4.99121C49.0202 6.43924 53.1816 5.05625 53.1816 7.82324C53.1816 9.04682 52.1168 9.81934 50.3418 9.81934C48.5682 9.81927 47.4397 8.98252 47.4072 7.59766H48.8271C48.8597 8.33877 49.5044 8.75672 50.4404 8.75684C51.2792 8.75684 51.7637 8.37042 51.7637 7.85547C51.7634 6.34335 47.6007 7.72674 47.6006 5.05469C47.6006 3.83241 48.6656 2.99524 50.4404 2.99512ZM57.3799 3.02637C58.9935 3.02646 60.3173 4.24964 60.3174 6.3418V6.8584H55.6367C55.7343 7.92073 56.2837 8.62793 57.3799 8.62793C58.186 8.62787 58.7032 8.17803 58.8008 7.69434H60.252C60.0582 8.91794 58.9298 9.81927 57.3799 9.81934C55.4437 9.81934 54.1534 8.40319 54.1533 6.40723C54.1533 4.41113 55.4436 3.02637 57.3799 3.02637ZM16.3926 0C18.5225 0 19.6522 1.06221 19.6836 2.89551C19.6836 4.69915 18.5548 5.89062 16.4248 5.89062H14.0693V9.62695H12.5518V0H16.3926ZM24.5889 4.50684C23.1364 4.50687 22.04 4.89382 22.04 6.05371V9.62695H20.6191V3.21973H22.0391V4.44238C22.4591 3.57377 23.3302 3.15434 24.5889 3.1543V4.50684ZM41.0469 3.02734C42.6294 3.02737 43.4043 3.99212 43.4043 5.85938V9.62695H41.9502V5.9248C41.9502 4.8936 41.4341 4.25 40.5615 4.25C39.4967 4.25014 38.8194 5.15215 38.8193 6.4082V9.62695H37.3359V5.9248C37.3359 4.8936 36.8501 4.25 35.9463 4.25C34.8815 4.25022 34.2041 5.15221 34.2041 6.4082V9.62695H32.7529V3.21973H34.2051V4.25C34.6576 3.50887 35.3678 3.02747 36.4326 3.02734C37.4976 3.02734 38.241 3.47741 38.5635 4.37988C39.1448 3.47743 39.9832 3.02734 41.0469 3.02734ZM46.2129 9.62695H44.7607V3.21973H46.2129V9.62695ZM28.3643 4.25C27.2667 4.25 26.5244 5.15206 26.5244 6.4082C26.5244 7.66308 27.2992 8.56445 28.3643 8.56445C29.4304 8.56437 30.2362 7.66321 30.2363 6.40723C30.2363 5.15241 29.4617 4.25008 28.3643 4.25ZM57.3486 4.25C56.3474 4.25 55.8312 4.89327 55.6699 5.85938H58.8652C58.7997 4.92516 58.2194 4.25007 57.3486 4.25ZM14.0361 1.41699V4.44336H16.1016C17.4578 4.44332 18.1025 3.86334 18.1025 2.92969C18.1025 1.99611 17.4253 1.4171 16.0381 1.41699H14.0361ZM45.5029 0.354492C46.0842 0.354492 46.5049 0.772848 46.5049 1.32031C46.5046 1.86754 46.0515 2.28613 45.5029 2.28613C44.922 2.28598 44.5032 1.86744 44.5029 1.32031C44.5029 0.774248 44.9218 0.354645 45.5029 0.354492Z" fill="#5632EB"/>
</svg>
