<svg width="16" height="16" viewBox="0 0 16 16" fill="none" xmlns="http://www.w3.org/2000/svg">
<path d="M7.61285 1.33333C7.96639 1.33335 8.30522 1.474 8.55524 1.72395L14.5552 7.72395C15.0759 8.24465 15.0759 9.089 14.5552 9.6097L9.4986 14.6663C8.9779 15.187 8.13355 15.187 7.61285 14.6663L1.61285 8.66634C1.3629 8.41632 1.22226 8.07749 1.22223 7.72395V3.9427C1.22226 3.58917 1.3629 3.25033 1.61285 3.00032L2.88922 1.72395C3.13924 1.474 3.47807 1.33335 3.8316 1.33333H7.61285ZM5.55524 4.33333C4.81906 4.33344 4.2224 4.93017 4.22223 5.66634C4.22223 6.40265 4.81895 7.00021 5.55524 7.00032C6.29162 7.00032 6.88922 6.40272 6.88922 5.66634C6.88905 4.9301 6.29151 4.33333 5.55524 4.33333Z" fill="black"/>
</svg>
