<svg width="24" height="24" viewBox="0 0 24 24" fill="none" xmlns="http://www.w3.org/2000/svg">
<path d="M12.9019 2.56798C12.7356 2.22088 12.3849 2 12 2C11.6152 2 11.2644 2.22088 11.0982 2.56798L8.45542 8.08482L2.36984 8.8839C1.98727 8.93413 1.66773 9.2 1.54875 9.56705C1.42978 9.93411 1.5326 10.3369 1.81297 10.602L6.26237 14.8093L5.14555 20.8172C5.07514 21.196 5.22857 21.5815 5.53998 21.8083C5.85139 22.0351 6.2654 22.0629 6.60429 21.8797L12 18.9625L17.3958 21.8797C17.7347 22.0629 18.1487 22.0351 18.4601 21.8083C18.7715 21.5815 18.9249 21.196 18.8545 20.8172L17.7377 14.8093L22.1871 10.602C22.4675 10.3369 22.5703 9.93411 22.4513 9.56705C22.3323 9.2 22.0128 8.93413 21.6302 8.8839L15.5446 8.08482L12.9019 2.56798Z" fill="black"/>
<mask id="mask0_148_6321" style="mask-type:alpha" maskUnits="userSpaceOnUse" x="0" y="0" width="24" height="24">
<path d="M12.9019 2.56798C12.7356 2.22088 12.3849 2 12 2C11.6152 2 11.2644 2.22088 11.0982 2.56798L8.45542 8.08482L2.36984 8.8839C1.98727 8.93413 1.66773 9.2 1.54875 9.56705C1.42978 9.93411 1.5326 10.3369 1.81297 10.602L6.26237 14.8093L5.14555 20.8172C5.07514 21.196 5.22857 21.5815 5.53998 21.8083C5.85139 22.0351 6.2654 22.0629 6.60429 21.8797L12 18.9625L17.3958 21.8797C17.7347 22.0629 18.1487 22.0351 18.4601 21.8083C18.7715 21.5815 18.9249 21.196 18.8545 20.8172L17.7377 14.8093L22.1871 10.602C22.4675 10.3369 22.5703 9.93411 22.4513 9.56705C22.3323 9.2 22.0128 8.93413 21.6302 8.8839L15.5446 8.08482L12.9019 2.56798Z" fill="black"/>
</mask>
<g mask="url(#mask0_148_6321)">
<rect width="24" height="24" fill="#CBCBCA"/>
</g>
</svg>
